PathFileType	4	(X/Y/Z)	walk-thru1-1-TP.trc
DataRate	CameraRate	NumFrames	NumMarkers	Units	OrigDataRate	OrigDataStartFrame	OrigNumFrames
120.00	120.00	       4	60	mm	120.00	1	       452
Frame#	Time	Top.Head			Front.Head			Rear.Head			Jaw			C7			R.Clavicle			L.Clavicle			R.Shoulder			L.Shoulder			R.Scapula			L.Scapula			R.Scap.Inf			R.Biceps.Lateral			R.Elbow			R.Elbow.Medial			R.Forearm			R.Ulna			R.Radius			R.Wrist			R.Thumb.M1			R.Thumb.M2			R.Thumb.M3			R.Finger3.M1			R.Finger3.M2			R.Finger3.M3			L.Biceps.Lateral			L.Elbow			L.Elbow.Medial			L.Forearm			L.Ulna			L.Radius			L.Wrist			L.Thumb.M1			L.Thumb.M2			L.Thumb.M3			L.Finger3.M1			L.Finger3.M2			L.Finger3.M3			V.Sacral			R.ASIS			L.ASIS			R.Thigh			R.Thigh.Front			R.Knee			R.Knee.Medial			R.Shank			R.Ankle			R.Ankle.Medial			R.Heel			R.Toe			R.MedFoot			L.Thigh			L.Knee			L.Knee.Medial			L.Shank			L.Ankle			L.Ankle.Medial			L.Heel			L.Toe			L.MedFoot			V_mid_ASIS			V_R_Knee_JC			V_L_Knee_JC			V_R_Elbow_JC			V_L_Elbow_JC			V_R_Ankle_JC			V_L_Ankle_JC			V_R_Wrist_JC			V_L_Wrist_JC			V_R_ScaTrpz_1stMC_JC			V_R_1stMC_1stPP_JC			V_R_1stPP_1stDP_JC			V_R_LunCap_3rdMC_JC			V_R_3rdMC_3rdPP_JC			V_R_3rdPP_3rdMP_JC			V_R_3rdMP_3rdDP_JC			V_L_ScaTrpz_1stMC_JC			V_L_1stMC_1stPP_JC			V_L_1stPP_1stDP_JC			V_L_LunCap_3rdMC_JC			V_L_3rdMC_3rdPP_JC			V_L_3rdPP_3rdMP_JC			V_L_3rdMP_3rdPP_JC			V_ROOT_JC			V_R_Hip_JC			V_L_Hip_JC			V_R_GlenHum_JC			V_L_GlenHum_JC			V_ForeHead_Ctr			V_Vertex			V_Sagit_Lambdoid_Suture			V_R_FrontoTemp			V_L_FrontoTemporal			V_R_ParietalOccip			V_L_ParietalOcciptal			V_R_Temporal			V_L_Temporal			V_mid_FrontRearHead			V_mid_RLGlenHumCtrs			V_C7_vert			V_C1_vert			V_Mid_Hip			
		X1	Y1	Z1	X2	Y2	Z2	X3	Y3	Z3	X4	Y4	Z4	X5	Y5	Z5	X6	Y6	Z6	X7	Y7	Z7	X8	Y8	Z8	X9	Y9	Z9	X10	Y10	Z10	X11	Y11	Z11	X12	Y12	Z12	X13	Y13	Z13	X14	Y14	Z14	X15	Y15	Z15	X16	Y16	Z16	X17	Y17	Z17	X18	Y18	Z18	X19	Y19	Z19	X20	Y20	Z20	X21	Y21	Z21	X22	Y22	Z22	X23	Y23	Z23	X24	Y24	Z24	X25	Y25	Z25	X26	Y26	Z26	X27	Y27	Z27	X28	Y28	Z28	X29	Y29	Z29	X30	Y30	Z30	X31	Y31	Z31	X32	Y32	Z32	X33	Y33	Z33	X34	Y34	Z34	X35	Y35	Z35	X36	Y36	Z36	X37	Y37	Z37	X38	Y38	Z38	X39	Y39	Z39	X40	Y40	Z40	X41	Y41	Z41	X42	Y42	Z42	X43	Y43	Z43	X44	Y44	Z44	X45	Y45	Z45	X46	Y46	Z46	X47	Y47	Z47	X48	Y48	Z48	X49	Y49	Z49	X50	Y50	Z50	X51	Y51	Z51	X52	Y52	Z52	X53	Y53	Z53	X54	Y54	Z54	X55	Y55	Z55	X56	Y56	Z56	X57	Y57	Z57	X58	Y58	Z58	X59	Y59	Z59	X60	Y60	Z60	

1	0.000	1527.06213	-4.55632	1562.21497	1418.66528	-1.24278	1468.71484	1635.01086	-0.90917	1473.99207	1440.07153	11.40930	1325.79517	1643.73877	18.48022	1370.38391	1554.88367	126.81146	1279.54468	1549.32800	-89.46341	1287.50452	1600.45825	202.85101	1276.21448	1601.15405	-181.99684	1288.47742	1687.72546	107.73395	1294.45972	1693.72839	-76.60233	1296.13525	1735.49939	92.79247	1214.13452	1564.20850	253.83192	1134.38037	1581.69287	276.49646	972.11792	1615.72974	211.09735	952.94409	1498.62451	261.68698	906.55511	1513.98120	286.34604	817.76520	1447.18701	237.40591	782.04462	1443.75220	276.16980	744.57196	1415.82434	234.87698	733.40533	1404.41858	215.38243	699.29669	1396.73486	203.61647	658.50458	1415.35632	285.14578	671.94800	1415.50122	262.48303	622.59045	1424.28198	241.61047	589.19928	1625.01245	-243.12645	1144.12317	1680.96326	-249.66490	1002.90973	1697.34595	-168.73375	996.68628	1605.03467	-241.25847	926.84943	1636.04492	-278.16553	838.47583	1584.56506	-227.96916	785.41675	1588.64526	-277.93466	760.10681	1562.94189	-237.71216	746.30878	1553.46240	-218.25903	706.86646	1560.39282	-205.74687	655.17291	1578.06165	-279.80539	669.20630	1581.22986	-267.13715	630.76654	1593.68140	-236.61757	598.28711	1760.61108	4.87429	907.22961	1564.04419	161.62097	965.07709	1577.46265	-154.84186	953.92896	1569.49939	182.84241	575.58636	1510.20532	105.01184	484.91742	1561.12512	140.55513	436.61127	1558.17664	28.71162	432.18872	1587.18689	85.86801	265.04663	1691.18677	99.38782	64.51518	1675.42126	6.71713	81.14372	1751.08337	46.40881	43.55019	1548.92615	75.80694	37.15955	1606.85547	32.10957	61.44894	1512.75269	-189.12405	585.77167	1468.24817	-170.12300	449.07315	1454.86450	-48.29469	430.96246	1555.65894	-110.30067	267.89636	1705.60608	-130.17755	128.83990	1683.49622	-42.05245	143.02634	1770.36499	-82.22714	132.24863	1591.93042	-88.20810	48.28885	1623.75708	-57.50696	90.74915																																																																																																																															
2	0.008	1519.99536	-4.04788	1561.54749	1413.35046	-1.86562	1468.06750	1628.58875	-0.27125	1473.91223	1434.82385	11.04924	1325.82520	1636.98145	19.35357	1370.68542	1549.15417	124.32800	1278.71838	1543.41589	-88.93796	1287.59656	1594.30493	203.69865	1275.96533	1595.06824	-180.60945	1288.94482	1681.90149	108.29330	1294.37122	1688.15234	-76.78421	1296.34204	1729.37488	93.17597	1213.93530	1556.52405	253.48381	1134.67920	1574.00537	277.51807	971.87390	1607.18945	210.61819	953.10303	1489.57422	261.29395	907.04590	1503.98560	287.45587	819.56769	1438.73083	236.93364	782.81543	1432.95984	275.72983	746.69836	1405.48596	234.88431	734.53101	1393.73474	216.06691	699.59875	1386.00671	203.47450	659.84094	1405.49280	283.63873	673.03235	1403.69971	261.84097	624.05396	1414.62195	241.48409	590.21179	1619.50024	-243.61423	1143.56079	1675.37488	-247.81671	1002.30707	1692.05212	-168.32222	996.67267	1600.77686	-241.83704	926.96301	1631.32971	-278.17517	838.23132	1577.89124	-228.11395	786.19958	1580.77026	-277.12891	759.76172	1555.36060	-237.87671	745.47992	1549.60022	-216.18629	707.05316	1558.47729	-204.35640	655.86938	1572.17834	-279.64706	670.65570	1575.48633	-265.34238	630.13568	1589.81519	-235.72437	598.80353	1754.91663	4.98494	907.26935	1559.50574	162.39732	964.90875	1570.49133	-155.64200	953.74286	1566.97864	182.74187	574.58368	1507.93958	105.47787	483.71640	1558.83850	140.39180	435.66599	1555.24866	28.60117	431.71448	1585.66541	85.71469	264.75464	1690.80823	98.78857	64.78017	1675.37354	6.46906	81.04853	1750.97559	46.58193	43.77309	1549.02954	76.29639	37.05793	1607.04492	31.25042	60.75319	1502.09766	-188.23735	586.83649	1457.68384	-169.14314	450.20923	1443.10864	-47.27945	432.91318	1540.05994	-111.03579	266.51096	1686.08240	-129.90285	122.71655	1664.63940	-40.38876	137.88107	1749.24536	-77.80233	122.79298	1568.08875	-89.46841	47.05598	1602.38489	-59.30584	87.35938																																																																																																																															
3	0.017	1513.68567	-3.99302	1561.76807	1407.45105	-2.30277	1467.63745	1623.74866	-0.09312	1473.69739	1428.75159	9.74384	1325.34167	1630.75391	19.06424	1370.04346	1543.36890	124.26814	1278.32104	1537.81006	-88.79610	1287.47424	1587.03442	203.23656	1275.46765	1589.36804	-180.72255	1288.52393	1673.77551	108.41206	1294.71497	1681.65149	-76.31667	1296.30945	1723.37268	93.29288	1213.86841	1550.36755	252.73524	1135.32471	1564.66846	277.07544	971.92761	1602.39233	212.16570	953.44336	1481.45276	260.64389	908.06219	1494.86902	285.88129	820.12317	1427.58118	236.60526	784.01532	1424.85229	275.89893	747.15424	1396.00281	234.14250	735.46045	1384.76086	215.27962	701.62701	1375.88623	201.58025	661.33374	1395.52258	283.94400	674.03619	1392.38318	260.67126	626.26178	1402.60815	239.32262	592.72333	1613.12927	-242.64206	1143.80298	1670.65698	-248.19495	1002.21265	1685.39807	-168.60074	995.78583	1596.28479	-241.99005	926.91321	1625.10315	-278.37576	837.62549	1573.23438	-229.19229	785.46149	1576.21204	-276.45245	759.12115	1549.29504	-236.50131	744.65045	1542.97778	-216.85576	707.71735	1549.25684	-203.78621	655.90814	1566.92773	-279.67697	668.95117	1571.42908	-266.81903	630.60376	1582.65930	-234.92995	598.40289	1748.92175	4.03006	907.21759	1552.76709	162.02971	964.31256	1563.70422	-154.08643	953.10968	1562.61755	181.32881	573.90430	1505.69434	106.48042	482.65228	1556.21265	141.43420	434.96997	1552.36365	28.00948	429.95602	1584.18762	85.16666	263.95093	1690.58752	98.34847	65.11240	1675.18701	6.39634	81.02068	1752.03430	45.39391	44.70745	1548.89600	76.36274	37.10762	1606.74109	31.47897	60.99356	1494.00781	-188.73236	587.76660	1447.06482	-168.65762	451.30008	1430.94263	-47.70197	434.87222	1524.74182	-110.45567	265.89737	1665.18115	-128.96242	117.84684	1641.18066	-41.40407	132.36623	1728.31824	-78.11750	115.43000	1543.48132	-89.68636	44.93045	1579.34802	-60.11426	84.95724																																																																																																																															
4	0.025	1506.54700	-3.49985	1560.85706	1400.34021	-3.78598	1468.00439	1617.51648	0.38453	1473.13892	1422.04004	10.98959	1324.42053	1624.58459	19.26480	1369.86426	1536.18701	123.64408	1277.87317	1532.17700	-88.72203	1286.81628	1580.50647	204.12207	1275.87830	1583.58118	-181.54976	1287.88318	1667.73901	108.93777	1294.39490	1676.07556	-76.27299	1296.32153	1716.16248	93.41967	1213.51990	1542.33899	253.11292	1135.10938	1557.93604	277.54224	971.04761	1592.01880	211.07576	952.36700	1472.45959	261.56641	908.28430	1485.93042	287.23956	820.44849	1419.32983	236.25208	783.57153	1414.29346	275.82059	747.78644	1387.14355	234.30254	736.61969	1374.07068	215.29649	702.66132	1365.57629	202.26723	662.32367	1385.27466	283.51718	675.38849	1382.76794	259.94016	626.71674	1391.88635	239.50299	592.83051	1608.34399	-243.85739	1142.88879	1664.77661	-248.15518	1001.86591	1679.46472	-167.83385	995.70569	1588.72314	-241.92595	926.84747	1620.23828	-277.71442	837.36719	1571.77649	-228.51619	785.10400	1571.11169	-277.70474	758.54102	1546.56116	-237.18872	744.12567	1539.48254	-215.25723	703.93121	1543.63965	-204.14209	654.76910	1560.88135	-278.05084	667.88062	1563.83362	-265.55588	630.21033	1576.88513	-233.78810	598.61414	1742.12366	3.69889	906.48962	1549.33289	161.93579	963.54492	1557.14673	-154.59137	954.14661	1559.69226	182.31253	573.87085	1504.26294	106.30317	482.33945	1553.79688	141.11430	434.69717	1549.38635	29.58578	430.47748	1583.32202	85.08887	262.97113	1690.92896	97.74057	64.91096	1675.37048	6.07084	80.71394	1750.66565	46.56744	44.64745	1549.34827	76.61021	37.03875	1606.92261	30.84204	59.79266	1485.99512	-188.83917	588.28070	1438.64075	-167.55560	452.57614	1421.00586	-44.32275	437.27670	1508.47473	-109.45866	265.20386	1643.88196	-127.69028	111.62070	1621.69214	-41.70910	126.45081	1708.14221	-76.01493	106.92447	1519.68860	-91.79343	45.00373	1557.14270	-60.21041	82.77180																																																																																																																															
